<?xml version="1.0" standalone="no"?><!DOCTYPE svg PUBLIC "-//W3C//DTD SVG 1.1//EN" "http://www.w3.org/Graphics/SVG/1.1/DTD/svg11.dtd"><svg t="1677028952866" class="icon" viewBox="0 0 1024 1024" version="1.1" xmlns="http://www.w3.org/2000/svg" p-id="5442" xmlns:xlink="http://www.w3.org/1999/xlink" width="200" height="200"><path d="M721.454545 162.909091H302.545455v58.042182a34.909091 34.909091 0 1 1-69.818182 0V162.909091H116.549818A23.272727 23.272727 0 0 0 93.090909 186.065455V372.363636h837.818182V186.065455A23.202909 23.202909 0 0 0 907.450182 162.909091H791.272727v58.042182a34.909091 34.909091 0 1 1-69.818182 0V162.909091z m69.818182-69.818182h116.177455A93.021091 93.021091 0 0 1 1000.727273 186.065455v698.414545A93.090909 93.090909 0 0 1 907.450182 977.454545H116.549818A93.021091 93.021091 0 0 1 23.272727 884.48V186.065455A93.090909 93.090909 0 0 1 116.549818 93.090909H232.727273v-11.496727a34.909091 34.909091 0 1 1 69.818182 0V93.090909h418.90909v-11.496727a34.909091 34.909091 0 1 1 69.818182 0V93.090909z m139.636364 349.090909H93.090909v442.298182c0 12.823273 10.379636 23.156364 23.458909 23.156364h790.900364A23.272727 23.272727 0 0 0 930.909091 884.48V442.181818z m-663.272727 116.363637h139.636363a34.909091 34.909091 0 0 1 0 69.818181h-139.636363a34.909091 34.909091 0 0 1 0-69.818181z m0 162.90909h139.636363a34.909091 34.909091 0 0 1 0 69.818182h-139.636363a34.909091 34.909091 0 0 1 0-69.818182z m349.090909-162.90909h139.636363a34.909091 34.909091 0 0 1 0 69.818181h-139.636363a34.909091 34.909091 0 0 1 0-69.818181z" fill="#b8b8b8" p-id="5443"></path></svg>