<?xml version="1.0" standalone="no"?><!DOCTYPE svg PUBLIC "-//W3C//DTD SVG 1.1//EN" "http://www.w3.org/Graphics/SVG/1.1/DTD/svg11.dtd"><svg t="1677204380810" class="icon" viewBox="0 0 1024 1024" version="1.1" xmlns="http://www.w3.org/2000/svg" p-id="6057" xmlns:xlink="http://www.w3.org/1999/xlink" width="200" height="200"><path d="M682.666667 341.333333H341.333333c-12.8 0-21.333333 8.533333-21.333333 21.333334s8.533333 21.333333 21.333333 21.333333h341.333334c12.8 0 21.333333-8.533333 21.333333-21.333333s-8.533333-21.333333-21.333333-21.333334zM682.666667 512H341.333333c-12.8 0-21.333333 8.533333-21.333333 21.333333s8.533333 21.333333 21.333333 21.333334h341.333334c12.8 0 21.333333-8.533333 21.333333-21.333334s-8.533333-21.333333-21.333333-21.333333zM682.666667 682.666667H341.333333c-12.8 0-21.333333 8.533333-21.333333 21.333333s8.533333 21.333333 21.333333 21.333333h341.333334c12.8 0 21.333333-8.533333 21.333333-21.333333s-8.533333-21.333333-21.333333-21.333333zM448 213.333333h128c36.266667 0 64-27.733333 64-64s-27.733333-64-64-64h-128c-36.266667 0-64 27.733333-64 64s27.733333 64 64 64z m0-85.333333h128c12.8 0 21.333333 8.533333 21.333333 21.333333s-8.533333 21.333333-21.333333 21.333334h-128c-12.8 0-21.333333-8.533333-21.333333-21.333334s8.533333-21.333333 21.333333-21.333333z" fill="#716ff3" p-id="6058"></path><path d="M746.666667 128h-42.666667c-12.8 0-21.333333 8.533333-21.333333 21.333333s8.533333 21.333333 21.333333 21.333334h42.666667c36.266667 0 64 27.733333 64 64v576c0 36.266667-27.733333 64-64 64H277.333333c-36.266667 0-64-27.733333-64-64V234.666667c0-36.266667 27.733333-64 64-64h42.666667c12.8 0 21.333333-8.533333 21.333333-21.333334s-8.533333-21.333333-21.333333-21.333333h-42.666667c-59.733333 0-106.666667 46.933333-106.666666 106.666667v576c0 59.733333 46.933333 106.666667 106.666666 106.666666h469.333334c59.733333 0 106.666667-46.933333 106.666666-106.666666V234.666667c0-59.733333-46.933333-106.666667-106.666666-106.666667z" fill="#716ff3" p-id="6059"></path></svg>