<?xml version="1.0" standalone="no"?><!DOCTYPE svg PUBLIC "-//W3C//DTD SVG 1.1//EN" "http://www.w3.org/Graphics/SVG/1.1/DTD/svg11.dtd"><svg t="1677204338724" class="icon" viewBox="0 0 1024 1024" version="1.1" xmlns="http://www.w3.org/2000/svg" p-id="4643" xmlns:xlink="http://www.w3.org/1999/xlink" width="200" height="200"><path d="M243.2 704h537.6V521.6a35.2 35.2 0 0 1 35.2-35.2h6.4a35.2 35.2 0 0 1 35.2 35.2v339.2a35.072 35.072 0 0 1-3.2576 14.8032A51.2192 51.2192 0 0 1 806.4 908.8H217.6a51.2192 51.2192 0 0 1-47.9424-33.1968A35.072 35.072 0 0 1 166.4 860.8v-339.2a35.2 35.2 0 0 1 35.2-35.2h6.4a35.2 35.2 0 0 1 35.2 35.2V704z m677.7472-358.4l-0.1152 0.1984c0.512 4.128 0.768 8.3328 0.768 12.6016 0 56.5568-45.8432 102.4-102.4 102.4s-102.4-45.8432-102.4-102.4c0 56.5568-45.8432 102.4-102.4 102.4s-102.4-45.8432-102.4-102.4c0 56.5568-45.8432 102.4-102.4 102.4s-102.4-45.8432-102.4-102.4c0 56.5568-45.8432 102.4-102.4 102.4s-102.4-45.8432-102.4-102.4c0-4.3328 0.2688-8.608 0.7936-12.8h817.7536z m-3.2512-38.4H112.0256l47.8336-155.8272A51.2 51.2 0 0 1 208.8 115.2h612.0832a51.2 51.2 0 0 1 48.9408 36.16L917.696 307.2z" fill="#716ff3" p-id="4644"></path></svg>