<?xml version="1.0" standalone="no"?><!DOCTYPE svg PUBLIC "-//W3C//DTD SVG 1.1//EN" "http://www.w3.org/Graphics/SVG/1.1/DTD/svg11.dtd"><svg t="1677204239559" class="icon" viewBox="0 0 1024 1024" version="1.1" xmlns="http://www.w3.org/2000/svg" p-id="2318" xmlns:xlink="http://www.w3.org/1999/xlink" width="200" height="200"><path d="M853.333333 426.666667a34.133333 34.133333 0 1 1 68.266667 0v392.533333a102.4 102.4 0 0 1-102.4 102.4H204.8a102.4 102.4 0 0 1-102.4-102.4V204.8a102.4 102.4 0 0 1 102.4-102.4h307.2a34.133333 34.133333 0 1 1 0 68.266667H204.8a34.133333 34.133333 0 0 0-34.133333 34.133333v614.4a34.133333 34.133333 0 0 0 34.133333 34.133333h614.4a34.133333 34.133333 0 0 0 34.133333-34.133333V426.666667z" fill="#716ff3" p-id="2319"></path><path d="M390.87373 570.689114m24.135911-24.135911l410.310495-410.310495q24.135911-24.135911 48.271823 0l0 0q24.135911 24.135911 0 48.271823l-410.310495 410.310495q-24.135911 24.135911-48.271823 0l0 0q-24.135911-24.135911 0-48.271823Z" fill="#716ff3" p-id="2320"></path></svg>