<?xml version="1.0" standalone="no"?><!DOCTYPE svg PUBLIC "-//W3C//DTD SVG 1.1//EN" "http://www.w3.org/Graphics/SVG/1.1/DTD/svg11.dtd"><svg t="1677028914608" class="icon" viewBox="0 0 1024 1024" version="1.1" xmlns="http://www.w3.org/2000/svg" p-id="3435" xmlns:xlink="http://www.w3.org/1999/xlink" width="200" height="200"><path d="M921.6 610.372267c0 23.176533-8.533333 43.8272-24.746667 59.904l-226.577066 227.089066a85.333333 85.333333 0 0 1-59.904 24.234667c-23.176533 0-43.8272-8.533333-59.972267-24.7808L186.368 532.411733c-14.336-13.994667-26.146133-32.426667-35.601067-55.0912C141.346133 454.724267 136.533333 433.493333 136.533333 413.320533V221.661867c0-22.971733 8.635733-43.349333 25.1904-59.938134A82.944 82.944 0 0 1 221.661867 136.533333h191.658666c19.8656 0 41.096533 4.8128 63.8976 14.199467 22.7328 9.386667 41.233067 21.0944 55.432534 35.396267L897.365333 550.4c15.906133 16.725333 24.200533 37.205333 24.200534 59.972267z m-52.3264 0c0-9.216-3.072-16.861867-9.352533-23.4496L495.616 223.061333c-9.0112-9.045333-21.674667-17.066667-38.2976-23.9616-16.827733-6.894933-31.505067-10.24-43.963733-10.24H221.661867a30.72 30.72 0 0 0-22.9376 9.898667c-6.826667 6.826667-9.864533 13.994667-9.864534 22.903467v191.658666c0 12.765867 3.310933 27.306667 10.205867 43.8272 6.894933 16.554667 14.984533 29.149867 24.098133 38.058667l364.3392 364.680533a30.3104 30.3104 0 0 0 22.869334 9.386667c9.181867 0 16.6912-3.072 23.415466-9.4208l226.0992-226.645333a30.3104 30.3104 0 0 0 9.386667-22.869334z m-498.858667-239.957334l-0.2048 0.2048a84.104533 84.104533 0 0 1-59.904 24.712534c-23.210667 0-43.690667-8.533333-60.074666-24.849067A82.7392 82.7392 0 0 1 225.28 310.272c0-23.108267 8.533333-43.588267 24.8832-60.074667A82.7392 82.7392 0 0 1 310.272 225.28c23.1424 0 43.690667 8.533333 60.040533 24.8832 16.452267 16.315733 24.9856 36.9664 24.9856 60.177067 0 23.1424-8.533333 43.690667-24.917333 60.074666z m-60.245333-27.409066a31.744 31.744 0 0 0 23.3472-9.728 30.583467 30.583467 0 0 0 9.489067-22.971734 30.549333 30.549333 0 0 0-9.591467-23.108266 30.6176 30.6176 0 0 0-23.108267-9.6256 30.481067 30.481067 0 0 0-23.04 9.557333 30.958933 30.958933 0 0 0-9.693866 23.176533c0 9.284267 3.003733 16.554667 9.6256 23.074134a30.549333 30.549333 0 0 0 22.971733 9.6256z" fill="#b8b8b8" p-id="3436"></path></svg>